<svg xmlns="http://www.w3.org/2000/svg" xmlns:xlink="http://www.w3.org/1999/xlink" contentStyleType="text/css" data-diagram-type="DESCRIPTION" height="562px" preserveAspectRatio="none" style="width:2275px;height:562px;background:#FEFEFE;" version="1.1" viewBox="0 0 2275 562" width="2275px" zoomAndPan="magnify"><title>harper &#8212; Component Architecture</title><defs/><g><rect fill="#FEFEFE" height="562" style="stroke:none;stroke-width:1;" width="2275" x="0" y="0"/><g class="title" data-source-line="7"><text fill="#000000" font-family="monospace" font-size="14" font-weight="bold" lengthAdjust="spacing" textLength="223.999" x="1018.7255" y="23.5099">harper&#160;&#8212;&#160;Component&#160;Architecture</text></g><!--cluster CLI / Entry--><g class="cluster" data-entity="CLI . Entry" data-source-line="10" data-uid="ent0002" id="cluster_CLI . Entry"><path d="M1144.25,44.9899 L1222.2497,44.9899 A3.75,3.75 0 0 1 1224.7497,47.4899 L1231.7497,68.4898 L1457.25,68.4898 A2.5,2.5 0 0 1 1459.75,70.9898 L1459.75,372.9899 A2.5,2.5 0 0 1 1457.25,375.4899 L1144.25,375.4899 A2.5,2.5 0 0 1 1141.75,372.9899 L1141.75,47.4899 A2.5,2.5 0 0 1 1144.25,44.9899" fill="#ADD8E6" style="stroke:#000000;stroke-width:1.5;"/><line style="stroke:#000000;stroke-width:1.5;" x1="1141.75" x2="1231.7497" y1="68.4898" y2="68.4898"/><text fill="#000000" font-family="monospace" font-size="14" font-weight="bold" lengthAdjust="spacing" textLength="76.9997" x="1145.75" y="60.4998">CLI&#160;/&#160;Entry</text></g><!--cluster Network I/O--><g class="cluster" data-entity="Network I.O" data-source-line="18" data-uid="ent0007" id="cluster_Network I.O"><path d="M792.25,268.4899 L870.2497,268.4899 A3.75,3.75 0 0 1 872.7497,270.9899 L879.7497,291.9898 L1099.25,291.9898 A2.5,2.5 0 0 1 1101.75,294.4898 L1101.75,544.2399 A2.5,2.5 0 0 1 1099.25,546.7399 L792.25,546.7399 A2.5,2.5 0 0 1 789.75,544.2399 L789.75,270.9899 A2.5,2.5 0 0 1 792.25,268.4899" fill="#F08080" style="stroke:#000000;stroke-width:1.5;"/><line style="stroke:#000000;stroke-width:1.5;" x1="789.75" x2="879.7497" y1="291.9898" y2="291.9898"/><text fill="#000000" font-family="monospace" font-size="14" font-weight="bold" lengthAdjust="spacing" textLength="76.9997" x="793.75" y="283.9998">Network&#160;I/O</text></g><!--cluster Host Management--><g class="cluster" data-entity="Host Management" data-source-line="25" data-uid="ent0011" id="cluster_Host Management"><path d="M1128.25,430.9899 L1234.2495,430.9899 A3.75,3.75 0 0 1 1236.7495,433.4899 L1243.7495,454.4898 L1441.25,454.4898 A2.5,2.5 0 0 1 1443.75,456.9898 L1443.75,552.9899 A2.5,2.5 0 0 1 1441.25,555.4899 L1128.25,555.4899 A2.5,2.5 0 0 1 1125.75,552.9899 L1125.75,433.4899 A2.5,2.5 0 0 1 1128.25,430.9899" fill="#D3D3D3" style="stroke:#000000;stroke-width:1.5;"/><line style="stroke:#000000;stroke-width:1.5;" x1="1125.75" x2="1243.7495" y1="454.4898" y2="454.4898"/><text fill="#000000" font-family="monospace" font-size="14" font-weight="bold" lengthAdjust="spacing" textLength="104.9995" x="1129.75" y="446.4998">Host&#160;Management</text></g><!--cluster MITM Engine--><g class="cluster" data-entity="MITM Engine" data-source-line="31" data-uid="ent0014" id="cluster_MITM Engine"><path d="M208.25,277.2399 L286.2497,277.2399 A3.75,3.75 0 0 1 288.7497,279.7399 L295.7497,300.7398 L528.25,300.7398 A2.5,2.5 0 0 1 530.75,303.2398 L530.75,544.2399 A2.5,2.5 0 0 1 528.25,546.7399 L208.25,546.7399 A2.5,2.5 0 0 1 205.75,544.2399 L205.75,279.7399 A2.5,2.5 0 0 1 208.25,277.2399" fill="#FFFFE0" style="stroke:#000000;stroke-width:1.5;"/><line style="stroke:#000000;stroke-width:1.5;" x1="205.75" x2="295.7497" y1="300.7398" y2="300.7398"/><text fill="#000000" font-family="monospace" font-size="14" font-weight="bold" lengthAdjust="spacing" textLength="76.9997" x="209.75" y="292.7498">MITM&#160;Engine</text></g><!--cluster Traffic Control--><g class="cluster" data-entity="Traffic Control" data-source-line="38" data-uid="ent0018" id="cluster_Traffic Control"><path d="M1656.25,277.2399 L1762.2495,277.2399 A3.75,3.75 0 0 1 1764.7495,279.7399 L1771.7495,300.7398 L1955.25,300.7398 A2.5,2.5 0 0 1 1957.75,303.2398 L1957.75,544.2399 A2.5,2.5 0 0 1 1955.25,546.7399 L1656.25,546.7399 A2.5,2.5 0 0 1 1653.75,544.2399 L1653.75,279.7399 A2.5,2.5 0 0 1 1656.25,277.2399" fill="#90EE90" style="stroke:#000000;stroke-width:1.5;"/><line style="stroke:#000000;stroke-width:1.5;" x1="1653.75" x2="1771.7495" y1="300.7398" y2="300.7398"/><text fill="#000000" font-family="monospace" font-size="14" font-weight="bold" lengthAdjust="spacing" textLength="104.9995" x="1657.75" y="292.7498">Traffic&#160;Control</text></g><!--entity Args--><g class="entity" data-entity="Args" data-source-line="11" data-uid="ent0003" id="entity_Args"><rect fill="#F1F1F1" height="37.4999" rx="2.5" ry="2.5" style="stroke:#181818;stroke-width:0.5;" width="82.9997" x="1296.25" y="80.9899"/><text fill="#000000" font-family="monospace" font-size="14" lengthAdjust="spacing" textLength="62.9997" x="1306.25" y="104.4998">clap&#160;Args</text></g><!--entity IfSel--><g class="entity" data-entity="IfSel" data-source-line="12" data-uid="ent0004" id="entity_IfSel"><rect fill="#F1F1F1" height="37.4999" rx="2.5" ry="2.5" style="stroke:#181818;stroke-width:0.5;" width="138.9995" x="1305.25" y="321.9899"/><text fill="#000000" font-family="monospace" font-size="14" lengthAdjust="spacing" textLength="118.9995" x="1315.25" y="345.4998">InterfaceSelector</text></g><!--entity TgtSel--><g class="entity" data-entity="TgtSel" data-source-line="13" data-uid="ent0005" id="entity_TgtSel"><rect fill="#F1F1F1" height="37.4999" rx="2.5" ry="2.5" style="stroke:#181818;stroke-width:0.5;" width="117.9996" x="1157.75" y="321.9899"/><text fill="#000000" font-family="monospace" font-size="14" lengthAdjust="spacing" textLength="97.9996" x="1167.75" y="345.4998">TargetSelector</text></g><!--entity Main--><g class="entity" data-entity="Main" data-source-line="14" data-uid="ent0006" id="entity_Main"><rect fill="#F1F1F1" height="54.9998" rx="2.5" ry="2.5" style="stroke:#181818;stroke-width:0.5;" width="124.9995" x="1275.25" y="159.4899"/><text fill="#000000" font-family="monospace" font-size="14" lengthAdjust="spacing" textLength="48.9998" x="1285.25" y="182.9998">main.rs</text><text fill="#000000" font-family="monospace" font-size="14" lengthAdjust="spacing" textLength="104.9995" x="1285.25" y="200.4998">gateway_mode.rs</text></g><!--entity Scanner--><g class="entity" data-entity="Scanner" data-source-line="19" data-uid="ent0008" id="entity_Scanner"><rect fill="#F1F1F1" height="72.4998" rx="2.5" ry="2.5" style="stroke:#181818;stroke-width:0.5;" width="187.9993" x="897.75" y="304.4899"/><text fill="#000000" font-family="monospace" font-size="14" lengthAdjust="spacing" textLength="69.9997" x="907.75" y="327.9998">ArpScanner</text><text fill="#000000" font-family="monospace" font-size="14" lengthAdjust="spacing" textLength="139.9994" x="907.75" y="345.4998">scan&#160;&#183;&#160;passive_sniff</text><text fill="#000000" font-family="monospace" font-size="14" lengthAdjust="spacing" textLength="167.9993" x="907.75" y="362.9997">pre_wake&#160;&#183;&#160;resolve_hosts</text></g><!--entity Sender--><g class="entity" data-entity="Sender" data-source-line="20" data-uid="ent0009" id="entity_Sender"><rect fill="#F1F1F1" height="54.9998" rx="2.5" ry="2.5" style="stroke:#181818;stroke-width:0.5;" width="117.9996" x="805.75" y="475.7399"/><text fill="#000000" font-family="monospace" font-size="14" lengthAdjust="spacing" textLength="97.9996" x="815.75" y="499.2498">DataLinkSender</text><text fill="#000000" font-family="monospace" font-size="14" lengthAdjust="spacing" textLength="83.9996" x="815.75" y="516.7498">Arc&lt;Mutex&lt;&gt;&gt;</text></g><!--entity Receiver--><g class="entity" data-entity="Receiver" data-source-line="21" data-uid="ent0010" id="entity_Receiver"><rect fill="#F1F1F1" height="54.9998" rx="2.5" ry="2.5" style="stroke:#181818;stroke-width:0.5;" width="131.9995" x="953.75" y="475.7399"/><text fill="#000000" font-family="monospace" font-size="14" lengthAdjust="spacing" textLength="111.9995" x="963.75" y="499.2498">DataLinkReceiver</text><text fill="#000000" font-family="monospace" font-size="14" lengthAdjust="spacing" textLength="83.9996" x="963.75" y="516.7498">Arc&lt;Mutex&lt;&gt;&gt;</text></g><!--entity Table--><g class="entity" data-entity="Table" data-source-line="26" data-uid="ent0012" id="entity_Table"><rect fill="#F1F1F1" height="72.4998" rx="2.5" ry="2.5" style="stroke:#181818;stroke-width:0.5;" width="117.9996" x="1141.75" y="466.9899"/><text fill="#000000" font-family="monospace" font-size="14" lengthAdjust="spacing" textLength="62.9997" x="1151.75" y="490.4998">HostTable</text><text fill="#000000" font-family="monospace" font-size="14" lengthAdjust="spacing" textLength="97.9996" x="1151.75" y="507.9998">IP&#160;+&#160;MAC&#160;index</text><text fill="#000000" font-family="monospace" font-size="14" lengthAdjust="spacing" textLength="90.9996" x="1151.75" y="525.4997">Arc&lt;RwLock&lt;&gt;&gt;</text></g><!--entity OUI--><g class="entity" data-entity="OUI" data-source-line="27" data-uid="ent0013" id="entity_OUI"><rect fill="#F1F1F1" height="37.4999" rx="2.5" ry="2.5" style="stroke:#181818;stroke-width:0.5;" width="138.9995" x="1289.25" y="484.4899"/><text fill="#000000" font-family="monospace" font-size="14" lengthAdjust="spacing" textLength="118.9995" x="1299.25" y="507.9998">OUI&#160;Vendor&#160;Lookup</text></g><!--entity Spoofer--><g class="entity" data-entity="Spoofer" data-source-line="32" data-uid="ent0015" id="entity_Spoofer"><rect fill="#F1F1F1" height="37.4999" rx="2.5" ry="2.5" style="stroke:#181818;stroke-width:0.5;" width="110.9996" x="221.25" y="321.9899"/><text fill="#000000" font-family="monospace" font-size="14" lengthAdjust="spacing" textLength="90.9996" x="231.25" y="345.4998">SpooferEngine</text></g><!--entity Poison--><g class="entity" data-entity="Poison" data-source-line="33" data-uid="ent0016" id="entity_Poison"><rect fill="#F1F1F1" height="54.9998" rx="2.5" ry="2.5" style="stroke:#181818;stroke-width:0.5;" width="187.9993" x="273.75" y="475.7399"/><text fill="#000000" font-family="monospace" font-size="14" lengthAdjust="spacing" textLength="69.9997" x="283.75" y="499.2498">PoisonLoop</text><text fill="#000000" font-family="monospace" font-size="14" lengthAdjust="spacing" textLength="167.9993" x="283.75" y="516.7498">bidirectional&#160;&#183;&#160;jittered</text></g><!--entity Forwarder--><g class="entity" data-entity="Forwarder" data-source-line="34" data-uid="ent0017" id="entity_Forwarder"><rect fill="#F1F1F1" height="54.9998" rx="2.5" ry="2.5" style="stroke:#181818;stroke-width:0.5;" width="152.9994" x="362.25" y="313.2399"/><text fill="#000000" font-family="monospace" font-size="14" lengthAdjust="spacing" textLength="104.9995" x="372.25" y="336.7498">PacketForwarder</text><text fill="#000000" font-family="monospace" font-size="14" lengthAdjust="spacing" textLength="132.9994" x="372.25" y="354.2498">spawn_blocking&#160;recv</text></g><!--entity TC--><g class="entity" data-entity="TC" data-source-line="39" data-uid="ent0019" id="entity_TC"><rect fill="#F1F1F1" height="54.9998" rx="2.5" ry="2.5" style="stroke:#181818;stroke-width:0.5;" width="124.9995" x="1669.25" y="313.2399"/><text fill="#000000" font-family="monospace" font-size="14" lengthAdjust="spacing" textLength="62.9997" x="1679.25" y="336.7498">TcManager</text><text fill="#000000" font-family="monospace" font-size="14" lengthAdjust="spacing" textLength="104.9995" x="1679.25" y="354.2498">HTB&#160;+&#160;IFB&#160;+&#160;nft</text></g><!--entity Kernel--><g class="entity" data-entity="Kernel" data-source-line="40" data-uid="ent0020" id="entity_Kernel"><rect fill="#F1F1F1" height="54.9998" rx="2.5" ry="2.5" style="stroke:#181818;stroke-width:0.5;" width="173.9993" x="1767.75" y="475.7399"/><text fill="#000000" font-family="monospace" font-size="14" lengthAdjust="spacing" textLength="76.9997" x="1777.75" y="499.2498">KernelState</text><text fill="#000000" font-family="monospace" font-size="14" lengthAdjust="spacing" textLength="153.9993" x="1777.75" y="516.7498">ip_forward&#160;&#183;&#160;rp_filter</text></g><!--entity Nft--><g class="entity" data-entity="Nft" data-source-line="41" data-uid="ent0021" id="entity_Nft"><rect fill="#F1F1F1" height="54.9998" rx="2.5" ry="2.5" style="stroke:#181818;stroke-width:0.5;" width="117.9996" x="1823.75" y="313.2399"/><text fill="#000000" font-family="monospace" font-size="14" lengthAdjust="spacing" textLength="48.9998" x="1833.75" y="336.7498">NftGate</text><text fill="#000000" font-family="monospace" font-size="14" lengthAdjust="spacing" textLength="97.9996" x="1833.75" y="354.2498">rpfilter-allow</text></g><g class="entity" data-entity="GMN47" data-source-line="81" data-uid="ent0048" id="entity_GMN47"><path d="M6,473.8699 L6,532.62 L189.5,532.62 L189.5,483.8699 L179.5,473.8699 L6,473.8699" fill="#FEFFDD" style="stroke:#181818;stroke-width:0.5;"/><path d="M179.5,473.8699 L179.5,483.8699 L189.5,483.8699 L179.5,473.8699" fill="#FEFFDD" style="stroke:#181818;stroke-width:1;"/><text fill="#000000" font-family="monospace" font-size="13" lengthAdjust="spacing" textLength="91" x="12" y="491.4149">ip_forward&#160;=&#160;0</text><text fill="#000000" font-family="monospace" font-size="13" lengthAdjust="spacing" textLength="136.5" x="12" y="507.6649">Userspace&#160;relay&#160;only.</text><text fill="#000000" font-family="monospace" font-size="13" lengthAdjust="spacing" textLength="162.5" x="12" y="523.9149">Avoids&#160;duplicate&#160;packets.</text></g><g class="entity" data-entity="GMN50" data-source-line="87" data-uid="ent0051" id="entity_GMN50"><path d="M1460.25,473.8699 L1460.25,532.62 A0,0 0 0 0 1460.25,532.62 L1637.25,532.62 A0,0 0 0 0 1637.25,532.62 L1637.25,483.8699 L1627.25,473.8699 L1585.65,473.8699 L1701.12,368.5999 L1577.65,473.8699 L1460.25,473.8699 A0,0 0 0 0 1460.25,473.8699" fill="#FEFFDD" style="stroke:#181818;stroke-width:0.5;"/><path d="M1627.25,473.8699 L1627.25,483.8699 L1637.25,483.8699 L1627.25,473.8699" fill="#FEFFDD" style="stroke:#181818;stroke-width:0.5;"/><text fill="#000000" font-family="monospace" font-size="13" lengthAdjust="spacing" textLength="136.5" x="1466.25" y="491.4149">Subprocess:&#160;tc&#160;+&#160;nft.</text><text fill="#000000" font-family="monospace" font-size="13" lengthAdjust="spacing" textLength="156" x="1466.25" y="507.6649">harper_mangle&#160;&#8594;&#160;fwmark.</text><text fill="#000000" font-family="monospace" font-size="13" lengthAdjust="spacing" textLength="156" x="1466.25" y="523.9149">IFB&#160;for&#160;ingress&#160;shaping.</text></g><!--link Args to Main--><g class="link" data-entity-1="Args" data-entity-2="Main" data-source-line="45" data-uid="lnk22" id="link_Args_Main"><path d="M1337.75,118.8199 C1337.75,130.5499 1337.75,140.0399 1337.75,153.1899" fill="none" id="Args-to-Main" style="stroke:#181818;stroke-width:1;"/><polygon fill="#181818" points="1337.75,159.1899,1341.75,150.1899,1337.75,154.1899,1333.75,150.1899,1337.75,159.1899" style="stroke:#181818;stroke-width:1;"/></g><!--link Main to IfSel--><g class="link" data-entity-1="Main" data-entity-2="IfSel" data-source-line="46" data-uid="lnk23" id="link_Main_IfSel"><path d="M1334.05,214.9199 C1333.19,226.5899 1333.16,240.3299 1335.75,252.4899 C1341.15,277.7999 1351.5224,299.4326 1361.0924,316.5526" fill="none" id="Main-to-IfSel" style="stroke:#181818;stroke-width:1;"/><polygon fill="#181818" points="1364.02,321.7899,1363.1201,311.9822,1361.5803,317.4255,1356.1371,315.8857,1364.02,321.7899" style="stroke:#181818;stroke-width:1;"/><text fill="#000000" font-family="monospace" font-size="13" lengthAdjust="spacing" textLength="104" x="1336.75" y="248.0349">select&#160;interface</text></g><!--link Main to Scanner--><g class="link" data-entity-1="Main" data-entity-2="Scanner" data-source-line="47" data-uid="lnk24" id="link_Main_Scanner"><path d="M1274.98,195.8999 C1234.24,202.5999 1180.75,214.4399 1136.75,234.4899 C1097.97,252.1599 1063.7814,277.2213 1036.0914,300.2713" fill="none" id="Main-to-Scanner" style="stroke:#181818;stroke-width:1;"/><polygon fill="#181818" points="1031.48,304.1099,1040.9562,301.4262,1035.3228,300.911,1035.838,295.2777,1031.48,304.1099" style="stroke:#181818;stroke-width:1;"/><text fill="#000000" font-family="monospace" font-size="13" lengthAdjust="spacing" textLength="78" x="1137.75" y="248.0349">scan&#160;+&#160;sniff</text></g><!--link Scanner to Table--><g class="link" data-entity-1="Scanner" data-entity-2="Table" data-source-line="48" data-uid="lnk25" id="link_Scanner_Table"><path d="M1037.72,377.3199 C1053.72,389.4799 1071.89,403.0199 1088.75,414.9899 C1093.98,418.6999 1095.57,419.2199 1100.75,422.9899 C1119.74,436.8099 1135.46,449.0152 1152.86,462.9752" fill="none" id="Scanner-to-Table" style="stroke:#181818;stroke-width:1;"/><polygon fill="#181818" points="1157.54,466.7299,1153.0232,457.9778,1153.64,463.601,1148.0169,464.2178,1157.54,466.7299" style="stroke:#181818;stroke-width:1;"/><text fill="#000000" font-family="monospace" font-size="13" lengthAdjust="spacing" textLength="136.5" x="1089.75" y="410.5349">insert&#160;DiscoveredHost</text></g><!--link Scanner to OUI--><g class="link" data-entity-1="Scanner" data-entity-2="OUI" data-source-line="49" data-uid="lnk26" id="link_Scanner_OUI"><path d="M1085.98,369.5999 C1104.69,374.6199 1124.27,379.5199 1142.75,383.4899 C1181,391.7199 1193.17,383.1099 1229.75,396.9899 C1243.58,402.2399 1244.81,407.8299 1257.75,414.9899 C1265.06,419.0299 1267.85,418.2899 1274.75,422.9899 C1300.93,440.8299 1322.7216,462.4199 1338.6816,479.7199" fill="none" id="Scanner-to-OUI" style="stroke:#181818;stroke-width:1;"/><polygon fill="#181818" points="1342.75,484.1299,1339.5874,474.8026,1339.3597,480.4549,1333.7074,480.2272,1342.75,484.1299" style="stroke:#181818;stroke-width:1;"/><text fill="#000000" font-family="monospace" font-size="13" lengthAdjust="spacing" textLength="84.5" x="1258.75" y="410.5349">lookup_vendor</text></g><!--link Main to TgtSel--><g class="link" data-entity-1="Main" data-entity-2="TgtSel" data-source-line="50" data-uid="lnk27" id="link_Main_TgtSel"><path d="M1274.79,204.4299 C1259.25,211.3299 1244.11,220.9999 1233.75,234.4899 C1214.24,259.8799 1212.9424,293.0324 1214.4124,315.7424" fill="none" id="Main-to-TgtSel" style="stroke:#181818;stroke-width:1;"/><polygon fill="#181818" points="1214.8,321.7299,1218.2103,312.4903,1214.477,316.7403,1210.227,313.0071,1214.8,321.7299" style="stroke:#181818;stroke-width:1;"/><text fill="#000000" font-family="monospace" font-size="13" lengthAdjust="spacing" textLength="91" x="1234.75" y="248.0349">select&#160;targets</text></g><!--link Table to TgtSel--><g class="link" data-entity-1="Table" data-entity-2="TgtSel" data-source-line="51" data-uid="lnk28" id="link_Table_TgtSel"><path d="M1224.75,466.6199 C1237.59,450.5099 1254.87,432.8999 1274.75,422.9899 C1289.95,415.4199 1339.39,427.6099 1350.75,414.9899 C1356.1,409.0399 1355.75,403.2399 1350.75,396.9899 C1333.67,375.6499 1316.26,393.3099 1290.75,383.4899 C1274.64,377.2899 1262.9288,371.1536 1249.3888,362.9336" fill="none" id="Table-to-TgtSel" style="stroke:#181818;stroke-width:1;"/><polygon fill="#181818" points="1244.26,359.8199,1249.8775,367.9096,1248.534,362.4146,1254.029,361.0712,1244.26,359.8199" style="stroke:#181818;stroke-width:1;"/><text fill="#000000" font-family="monospace" font-size="13" lengthAdjust="spacing" textLength="84.5" x="1355.63" y="410.5349">display&#160;hosts</text></g><!--link Scanner to Sender--><g class="link" data-entity-1="Scanner" data-entity-2="Sender" data-source-line="54" data-uid="lnk29" id="link_Scanner_Sender"><path d="M919.39,377.2299 C911.72,383.0699 904.61,389.6499 898.75,396.9899 C880.54,419.7999 872.9919,446.7176 869.0319,469.6276" fill="none" id="Scanner-to-Sender" style="stroke:#181818;stroke-width:1;"/><polygon fill="#181818" points="868.01,475.5399,873.4845,467.3527,868.8616,470.613,865.6014,465.9901,868.01,475.5399" style="stroke:#181818;stroke-width:1;"/><text fill="#000000" font-family="monospace" font-size="13" lengthAdjust="spacing" textLength="78" x="899.75" y="410.5349">get_sender()</text></g><!--link Scanner to Receiver--><g class="link" data-entity-1="Scanner" data-entity-2="Receiver" data-source-line="55" data-uid="lnk30" id="link_Scanner_Receiver"><path d="M988.05,377.3699 C987.51,383.8899 987.04,390.6399 986.75,396.9899 C986.39,404.9799 985.31,407.1199 986.75,414.9899 C990.59,436.0199 996.8216,453.0733 1004.3016,469.9733" fill="none" id="Scanner-to-Receiver" style="stroke:#181818;stroke-width:1;"/><polygon fill="#181818" points="1006.73,475.4599,1006.7452,465.6111,1004.7063,470.8877,999.4297,468.8489,1006.73,475.4599" style="stroke:#181818;stroke-width:1;"/><text fill="#000000" font-family="monospace" font-size="13" lengthAdjust="spacing" textLength="65" x="987.75" y="410.5349">(internal)</text></g><!--link Main to Spoofer--><g class="link" data-entity-1="Main" data-entity-2="Spoofer" data-source-line="58" data-uid="lnk31" id="link_Main_Spoofer"><path d="M1274.93,189.6199 C1099.63,194.4299 607.54,209.7999 447.75,234.4899 C402.37,241.4999 386.96,236.5899 347.75,260.4899 C322.35,275.9699 304.2188,298.3754 291.7288,316.5454" fill="none" id="Main-to-Spoofer" style="stroke:#181818;stroke-width:1;"/><polygon fill="#181818" points="288.33,321.4899,296.7246,316.3391,291.1624,317.3695,290.1319,311.8073,288.33,321.4899" style="stroke:#181818;stroke-width:1;"/><text fill="#000000" font-family="monospace" font-size="13" lengthAdjust="spacing" textLength="117" x="448.75" y="248.0349">Start(SpoofTarget)</text></g><!--link Main to Spoofer--><g class="link" data-entity-1="Main" data-entity-2="Spoofer" data-source-line="74" data-uid="lnk43" id="link_Main_Spoofer"><path d="M1274.97,188.8099 C1153.17,191.1499 876.55,200.1299 646.75,234.4899 C611.99,239.6899 604.59,247.8399 569.75,252.4899 C545.28,255.7599 370.1,250.0199 347.75,260.4899 C320.15,273.4199 301.7843,297.5059 289.9743,316.6159" fill="none" id="Main-to-Spoofer-1" style="stroke:#181818;stroke-width:1;stroke-dasharray:7,7;"/><polygon fill="#181818" points="286.82,321.7199,294.9541,316.1668,289.4486,317.4666,288.1487,311.9611,286.82,321.7199" style="stroke:#181818;stroke-width:1;"/><text fill="#000000" font-family="monospace" font-size="13" lengthAdjust="spacing" textLength="45.5" x="647.75" y="248.0349">StopAll</text></g><!--link Main to Forwarder--><g class="link" data-entity-1="Main" data-entity-2="Forwarder" data-source-line="59" data-uid="lnk32" id="link_Main_Forwarder"><path d="M1275.09,194.2699 C1173.11,204.9399 965.08,228.5999 790.75,260.4899 C695.4,277.9299 592.53,301.8316 521.46,319.1216" fill="none" id="Main-to-Forwarder" style="stroke:#181818;stroke-width:1;"/><polygon fill="#181818" points="515.63,320.5399,525.3205,322.2991,520.4883,319.358,523.4294,314.5258,515.63,320.5399" style="stroke:#181818;stroke-width:1;"/><text fill="#000000" font-family="monospace" font-size="13" lengthAdjust="spacing" textLength="123.5" x="941.27" y="248.0349">Enable(ForwardRule)</text></g><!--link Main to Forwarder--><g class="link" data-entity-1="Main" data-entity-2="Forwarder" data-source-line="73" data-uid="lnk42" id="link_Main_Forwarder"><path d="M1274.76,188.6999 C1170.17,190.8799 954.48,199.6299 775.75,234.4899 C681.45,252.8799 581.9152,286.1497 514.5452,310.7797" fill="none" id="Main-to-Forwarder-1" style="stroke:#181818;stroke-width:1;stroke-dasharray:7,7;"/><polygon fill="#181818" points="508.91,312.8399,518.7363,313.5064,513.606,311.1231,515.9894,305.9928,508.91,312.8399" style="stroke:#181818;stroke-width:1;"/><text fill="#000000" font-family="monospace" font-size="13" lengthAdjust="spacing" textLength="65" x="776.75" y="248.0349">DisableAll</text></g><!--link Spoofer to Poison--><g class="link" data-entity-1="Spoofer" data-entity-2="Poison" data-source-line="60" data-uid="lnk33" id="link_Spoofer_Poison"><path d="M261.78,359.9799 C251.3,375.0999 240.66,396.9599 249.75,414.9899 C262.83,440.9199 282.539,457.9333 306.059,472.2933" fill="none" id="Spoofer-to-Poison" style="stroke:#181818;stroke-width:1;"/><polygon fill="#181818" points="311.18,475.4199,305.5829,467.316,306.9125,472.8144,301.4141,474.144,311.18,475.4199" style="stroke:#181818;stroke-width:1;"/><text fill="#000000" font-family="monospace" font-size="13" lengthAdjust="spacing" textLength="104" x="250.75" y="410.5349">spawn&#160;tokio&#160;task</text></g><!--link Poison to Sender--><g class="link" data-entity-1="Poison" data-entity-2="Sender" data-source-line="61" data-uid="lnk34" id="link_Poison_Sender"><path d="M462.11,503.2399 C563.18,503.2399 714.47,503.2399 799.45,503.2399" fill="none" id="Poison-to-Sender" style="stroke:#181818;stroke-width:1;"/><polygon fill="#181818" points="805.45,503.2399,796.45,499.2399,800.45,503.2399,796.45,507.2399,805.45,503.2399" style="stroke:#181818;stroke-width:1;"/><text fill="#000000" font-family="monospace" font-size="13" lengthAdjust="spacing" textLength="143" x="562.25" y="495.7849">ArpPoison&#160;/&#160;ArpRestore</text></g><!--link Forwarder to Receiver--><g class="link" data-entity-1="Forwarder" data-entity-2="Receiver" data-source-line="62" data-uid="lnk35" id="link_Forwarder_Receiver"><path d="M455.03,368.5799 C466.81,385.2699 484.39,405.3399 505.75,414.9899 C549.6,434.7999 894.36,404.4099 938.75,422.9899 C964.52,433.7799 982.9098,452.2646 997.4898,470.7946" fill="none" id="Forwarder-to-Receiver" style="stroke:#181818;stroke-width:1;"/><polygon fill="#181818" points="1001.2,475.5099,998.7783,465.9634,998.1082,471.5804,992.4912,470.9103,1001.2,475.5099" style="stroke:#181818;stroke-width:1;"/><text fill="#000000" font-family="monospace" font-size="13" lengthAdjust="spacing" textLength="58.5" x="506.75" y="410.5349">recv&#160;loop</text></g><!--link Forwarder to Sender--><g class="link" data-entity-1="Forwarder" data-entity-2="Sender" data-source-line="63" data-uid="lnk36" id="link_Forwarder_Sender"><path d="M404.01,368.4499 C389.02,383.0999 377.6,401.0599 390.75,414.9899 C401.37,426.2399 514.44,420.7599 529.75,422.9899 C627.62,437.2699 733.1834,464.5879 799.6734,483.2579" fill="none" id="Forwarder-to-Sender" style="stroke:#181818;stroke-width:1;"/><polygon fill="#181818" points="805.45,484.8799,797.8665,478.5958,800.6362,483.5282,795.7038,486.2979,805.45,484.8799" style="stroke:#181818;stroke-width:1;"/><text fill="#000000" font-family="monospace" font-size="13" lengthAdjust="spacing" textLength="78" x="391.75" y="410.5349">relay_packet</text></g><!--link Forwarder to Table--><g class="link" data-entity-1="Forwarder" data-entity-2="Table" data-source-line="64" data-uid="lnk37" id="link_Forwarder_Table"><path d="M502.13,368.7199 C549.28,388.5599 607.5,412.4999 619.75,414.9899 C672.13,425.6399 1050.42,404.9899 1100.75,422.9899 C1125.99,432.0099 1145.3103,446.1304 1163.3103,462.8204" fill="none" id="Forwarder-to-Table" style="stroke:#181818;stroke-width:1;"/><polygon fill="#181818" points="1167.71,466.8999,1163.8301,457.8475,1164.0436,463.5003,1158.3907,463.7138,1167.71,466.8999" style="stroke:#181818;stroke-width:1;"/><text fill="#000000" font-family="monospace" font-size="13" lengthAdjust="spacing" textLength="169" x="620.75" y="410.5349">lookup&#160;victim/gateway&#160;MACs</text></g><!--link Main to Kernel--><g class="link" data-entity-1="Main" data-entity-2="Kernel" data-source-line="67" data-uid="lnk38" id="link_Main_Kernel"><path d="M1400.51,187.8199 C1553.88,188.0699 1938.05,192.8699 1976.75,234.4899 C2044.23,307.0599 1943.7269,419.2742 1888.9769,471.3642" fill="none" id="Main-to-Kernel" style="stroke:#181818;stroke-width:1;"/><polygon fill="#181818" points="1884.63,475.4999,1893.9075,472.1943,1888.2524,472.0535,1888.3932,466.3984,1884.63,475.4999" style="stroke:#181818;stroke-width:1;"/><text fill="#000000" font-family="monospace" font-size="13" lengthAdjust="spacing" textLength="39" x="2067.91" y="337.2849">enable</text><text fill="#000000" font-family="monospace" font-size="13" lengthAdjust="spacing" textLength="175.5" x="1999.66" y="353.5349">(ip_forward=0,&#160;rp_filter=0)</text></g><!--link Main to Kernel--><g class="link" data-entity-1="Main" data-entity-2="Kernel" data-source-line="76" data-uid="lnk45" id="link_Main_Kernel"><path d="M1400.53,188.4599 C1587.65,190.5099 2131.83,201.5399 2182.75,260.4899 C2218.49,301.8599 2214.14,338.7399 2182.75,383.4899 C2128.76,460.4599 2025.575,487.0165 1948.035,496.5665" fill="none" id="Main-to-Kernel-1" style="stroke:#181818;stroke-width:1;stroke-dasharray:7,7;"/><polygon fill="#181818" points="1942.08,497.2999,1951.5015,500.1698,1947.0425,496.6887,1950.5236,492.2298,1942.08,497.2999" style="stroke:#181818;stroke-width:1;"/><text fill="#000000" font-family="monospace" font-size="13" lengthAdjust="spacing" textLength="58.5" x="2208.95" y="345.2849">restore()</text></g><!--link Main to Nft--><g class="link" data-entity-1="Main" data-entity-2="Nft" data-source-line="68" data-uid="lnk39" id="link_Main_Nft"><path d="M1400.53,188.2099 C1510.91,189.5899 1734.44,197.0699 1801.75,234.4899 C1833.59,252.1899 1854.1641,282.8317 1867.4141,307.7617" fill="none" id="Main-to-Nft" style="stroke:#181818;stroke-width:1;"/><polygon fill="#181818" points="1870.23,313.0599,1869.5382,303.2354,1867.8834,308.6448,1862.474,306.9899,1870.23,313.0599" style="stroke:#181818;stroke-width:1;"/><text fill="#000000" font-family="monospace" font-size="13" lengthAdjust="spacing" textLength="143" x="1825.78" y="248.0349">install&#160;rpfilter-allow</text></g><!--link Main to Nft--><g class="link" data-entity-1="Main" data-entity-2="Nft" data-source-line="77" data-uid="lnk46" id="link_Main_Nft"><path d="M1400.44,187.3499 C1476.54,188.4499 1607.73,196.4699 1712.75,234.4899 C1726.66,239.5299 1726.82,247.4999 1740.75,252.4899 C1769.4,262.7599 1781.6,246.7499 1808.75,260.4899 C1832.27,272.3899 1848.6404,290.1325 1861.8704,308.1625" fill="none" id="Main-to-Nft-1" style="stroke:#181818;stroke-width:1;stroke-dasharray:7,7;"/><polygon fill="#181818" points="1865.42,312.9999,1863.3206,303.3774,1862.462,308.9687,1856.8707,308.1102,1865.42,312.9999" style="stroke:#181818;stroke-width:1;"/><text fill="#000000" font-family="monospace" font-size="13" lengthAdjust="spacing" textLength="52" x="1741.75" y="248.0349">revoke()</text></g><!--link Main to TC--><g class="link" data-entity-1="Main" data-entity-2="TC" data-source-line="69" data-uid="lnk40" id="link_Main_TC"><path d="M1400.56,197.6599 C1441.14,205.0699 1494.61,217.0199 1539.75,234.4899 C1554.97,240.3799 1557.48,244.5799 1571.75,252.4899 C1608.56,272.8799 1645.0365,292.768 1676.6565,309.928" fill="none" id="Main-to-TC" style="stroke:#181818;stroke-width:1;"/><polygon fill="#181818" points="1681.93,312.7899,1675.9277,304.9814,1677.5354,310.405,1672.1119,312.0127,1681.93,312.7899" style="stroke:#181818;stroke-width:1;"/><text fill="#000000" font-family="monospace" font-size="13" lengthAdjust="spacing" textLength="136.5" x="1572.75" y="248.0349">init()&#160;&#183;&#160;limit_host()</text></g><!--link Main to TC--><g class="link" data-entity-1="Main" data-entity-2="TC" data-source-line="75" data-uid="lnk44" id="link_Main_TC"><path d="M1400.51,213.2499 C1415.24,219.7299 1430.73,226.9999 1444.75,234.4899 C1457.8,241.4599 1459.42,246.0799 1472.75,252.4899 C1537.11,283.4299 1609.5357,306.5197 1663.0557,321.6297" fill="none" id="Main-to-TC-1" style="stroke:#181818;stroke-width:1;stroke-dasharray:7,7;"/><polygon fill="#181818" points="1668.83,323.2599,1661.2554,316.965,1664.0181,321.9014,1659.0818,324.6641,1668.83,323.2599" style="stroke:#181818;stroke-width:1;"/><text fill="#000000" font-family="monospace" font-size="13" lengthAdjust="spacing" textLength="58.5" x="1473.75" y="248.0349">cleanup()</text></g><!--link TC to Kernel--><g class="link" data-entity-1="TC" data-entity-2="Kernel" data-source-line="70" data-uid="lnk41" id="link_TC_Kernel"><path d="M1752.34,368.5999 C1775.04,398.2299 1807.7093,440.8683 1830.4493,470.5283" fill="none" id="TC-to-Kernel" style="stroke:#181818;stroke-width:1;"/><polygon fill="#181818" points="1834.1,475.2899,1831.7984,465.7138,1831.0578,471.3219,1825.4496,470.5813,1834.1,475.2899" style="stroke:#181818;stroke-width:1;"/><text fill="#000000" font-family="monospace" font-size="13" lengthAdjust="spacing" textLength="78" x="1786.89" y="410.5349">modprobe&#160;ifb</text></g><!--link Forwarder to GMN47--><g class="link" data-entity-1="Forwarder" data-entity-2="GMN47" data-source-line="81" data-uid="lnk49" id="link_Forwarder_GMN47"><path d="M386.75,368.6099 C373.95,374.2999 360.08,379.7199 346.75,383.4899 C300.63,396.5399 284.23,379.1399 239.75,396.9899 C196.04,414.5399 153.69,448.8799 126.79,473.5699" fill="none" id="Forwarder-GMN47" style="stroke:#181818;stroke-width:1;stroke-dasharray:7,7;"/></g><!--SRC=[pLVDRXit4BxlKmoIGoMa_W7Qan0Ri9Ku5cevWQKKAAf2e7PdL-noIOBaIX620Zdr0OgyI-zz53z9XwHMMcryo2MEPKFOdVduCnzdFevioQLcXbMmO6bP65NBRAY4Cl3ywhN_I-mEaQfAAudIJTn681XC7PE5m1OamvpLmbqfwMvPXJ1MKbdDKinQ8CDaQL73pwSjerGPUkDFfqdYkAFvhvbPq3xkFts6ORCoN9XqoHsjN1jCaX_W_lCd-eUfqWDuBPtPR2rFv3-Xs4jM83mRtepW96xn6Jo_uSNINOeQuMC2zFaz5KnJS8Nz0vWD3z4-aWvDJWHEK53KoWJ_AAVN29WoKw0xy4uBjtDNZCjZOsUoO0xNR3ElY6So1E2OdCbVBHh7FCi47WdCtG1kqQsLAM5qyXOUcwtMsWrRGsMOQEYwC7gICYdHpAIb1_ZlNz3CMhx2kPKypsTI6volMOdUPT0gGQwbiYw6lXqTPtl57BlXifoWpFoCb6GlnxN33o_FpoCwE0x1TvWYBVSGl74znAtniGpWcdP2_4kAjl9v_MtfxApMKFh6i4t3g8TCsKBWJ8xUmGiONmo1KzGVOdntwnkLbas00HZ7lNq_Wb-97ghK6wNAMWS0MHy8VW3ZqNHCHL1mYV2T2xArbOQFtr08jMuOcMYbSZGH4jCWMgBxdU9MIOfPp-I2PzpB8LUISfGIxa_kg6un2yCYSZkAbaVIHxDc9kGQgUDQpXU2sEMoyAAw2eDsa0CUBvLpgXh0rB0yvoa98mcA4l0T-EjiOPzJYBAXS9h6fACuhwUNb5MZA_yjSnVJQ1XXlw2HA2QE96eckPxdCVPGkVJ61N4P1aHW77IRkpTXWD4HSSJywGKS-GveewcDgpNa_dXxJccu__iVoDHQzhyvTOaNSmYVewFpgBd-QsyAQkvV1c23ZbFXRLM_WzogLa1wrNi1GUoIdJsWGdN6-RYqQ1oyuZPLAv-GlimxS5_14E4YLF1y5UgvitQyLTgxTE7giSbklIukurOBafWWk-tZM3BQoYDUB5zxL8V4HDKFaL2SSnjUU_qEgX5xGlN2kP44zDlIvtLcpOslxYSKQYUnehBvK4Ejz88XzXRz3dQdJBxZyaVVsrhkQe74JZDL04VjYrdZbGwSAhcYrB5bilDrsQRRVUixySztQAcrmMItS9TtBve-TtK7qfhI82NYN0VrxQ1QvHBp7rQSfBmwsRPC_YfiPsyZVEbZQ-_N76HKo10CodYTz_QAUdRwurvHpqwx9qkosIW12OSZFOL3SUrAmX3sUEvwVQ_OWbVSXKwBIcM7w6wEsb1jr0A1vui3PQYTbsNePSmkCUl34-3r-FWWwKbCFR4NGdGm1qMaz9U05b-fG2PhtUjt82sAJ4pxBo2jKpAuKgL7x1cyLGxjqvBLBhEIjWYBqCc0obkT3a3hyZ-3KpAyf_ih_82C5GnAYiqnsIzMYcSMibeBdbATGYnjUvnGpODV8Uck4xgDIRsWl4lHsW6uDFOYVhvb-B4vhy8Fsj0TvEkAcTBxVDD2kw8SB-XCBDWbq_JSMkf_]--></g></svg>